<svg width="33" height="32" viewBox="0 0 33 32" fill="none" xmlns="http://www.w3.org/2000/svg">
<path d="M28.4679 0C29.4109 0 30.3152 0.374602 30.982 1.0414C31.6488 1.70819 32.0234 2.61256 32.0234 3.55556V28.4444C32.0234 29.3874 31.6488 30.2918 30.982 30.9586C30.3152 31.6254 29.4109 32 28.4679 32H3.57899C2.636 32 1.73163 31.6254 1.06484 30.9586C0.398039 30.2918 0.0234375 29.3874 0.0234375 28.4444V3.55556C0.0234375 2.61256 0.398039 1.70819 1.06484 1.0414C1.73163 0.374602 2.636 0 3.57899 0H28.4679ZM27.579 27.5556V18.1333C27.579 16.5963 26.9684 15.1221 25.8815 14.0353C24.7946 12.9484 23.3205 12.3378 21.7834 12.3378C20.2723 12.3378 18.5123 13.2622 17.659 14.6489V12.6756H12.699V27.5556H17.659V18.7911C17.659 17.4222 18.7612 16.3022 20.1301 16.3022C20.7902 16.3022 21.4233 16.5644 21.89 17.0312C22.3568 17.498 22.619 18.131 22.619 18.7911V27.5556H27.579ZM6.92122 9.88445C7.71333 9.88445 8.473 9.56978 9.03311 9.00967C9.59322 8.44956 9.90788 7.68989 9.90788 6.89778C9.90788 5.24444 8.57455 3.89333 6.92122 3.89333C6.12439 3.89333 5.36019 4.20987 4.79675 4.77331C4.23331 5.33676 3.91677 6.10095 3.91677 6.89778C3.91677 8.55111 5.26788 9.88445 6.92122 9.88445ZM9.39233 27.5556V12.6756H4.46788V27.5556H9.39233Z" fill="black"/>
</svg>
