<svg width="34" height="34" viewBox="0 0 34 34" fill="none" xmlns="http://www.w3.org/2000/svg">
<path fill-rule="evenodd" clip-rule="evenodd" d="M31.277 0.574219H2.74687C1.76871 0.574219 0.976562 1.38569 0.976562 2.3877V31.6137C0.976562 32.6157 1.76871 33.4272 2.74687 33.4272H18.1055V20.7049H13.9267V15.7474H18.1055V12.0892C18.1055 7.84458 20.6359 5.53501 24.3321 5.53501C26.1024 5.53501 27.6225 5.66971 28.0667 5.73049V10.1656H25.5043C23.4934 10.1656 23.1054 11.1447 23.1054 12.5803V15.7457H27.8983L27.273 20.7032H23.1038V33.4272H31.277C32.2551 33.4272 33.0473 32.6157 33.0473 31.6137V2.3877C33.0473 1.38569 32.2551 0.574219 31.277 0.574219Z" fill="black"/>
</svg>
