<svg width="32" height="30" viewBox="0 0 32 30" fill="none" xmlns="http://www.w3.org/2000/svg">
<path d="M15.9985 0.295898C24.8366 0.295898 32 5.87914 32 12.7683C32 19.6559 24.8366 25.2391 16 25.2391C15.1202 25.2376 14.2413 25.1816 13.3684 25.0715L6.65143 29.4647C5.888 29.8685 5.61829 29.8243 5.93219 28.8353L7.29143 23.2308C2.90286 21.006 0 17.1508 0 12.7683C0 5.88066 7.1619 0.295898 16 0.295898M25.0027 12.5778L27.2427 10.4079C27.3719 10.2737 27.444 10.0945 27.4438 9.90816C27.4436 9.72181 27.371 9.54282 27.2415 9.4089C27.1119 9.27498 26.9354 9.19658 26.7492 9.19021C26.5629 9.18384 26.3815 9.25 26.243 9.37476L23.3051 12.2182V9.86847C23.3051 9.67772 23.2294 9.49478 23.0945 9.35989C22.9596 9.22501 22.7767 9.14923 22.5859 9.14923C22.3952 9.14923 22.2122 9.22501 22.0773 9.35989C21.9424 9.49478 21.8667 9.67772 21.8667 9.86847V13.7649C21.8413 13.8762 21.8413 13.9918 21.8667 14.1031V16.2959C21.8667 16.4867 21.9424 16.6696 22.0773 16.8045C22.2122 16.9394 22.3952 17.0151 22.5859 17.0151C22.7767 17.0151 22.9596 16.9394 23.0945 16.8045C23.2294 16.6696 23.3051 16.4867 23.3051 16.2959V14.2189L23.9558 13.5896L26.1318 16.6875C26.1861 16.7649 26.2552 16.8307 26.335 16.8814C26.4148 16.9321 26.5037 16.9665 26.5969 16.9828C26.69 16.9991 26.7854 16.9968 26.8776 16.9762C26.9698 16.9557 27.0571 16.9171 27.1345 16.8628C27.2118 16.8084 27.2777 16.7394 27.3284 16.6596C27.379 16.5798 27.4135 16.4908 27.4298 16.3977C27.446 16.3046 27.4438 16.2092 27.4232 16.117C27.4026 16.0247 27.364 15.9374 27.3097 15.8601L25.0027 12.5778ZM20.4952 15.5096H18.2705V9.89133C18.262 9.7065 18.1825 9.53206 18.0487 9.40428C17.9149 9.27649 17.737 9.20519 17.552 9.20519C17.367 9.20519 17.1891 9.27649 17.0553 9.40428C16.9215 9.53206 16.842 9.7065 16.8335 9.89133V16.2289C16.8335 16.625 17.1535 16.9481 17.5512 16.9481H20.4952C20.686 16.9481 20.8689 16.8723 21.0038 16.7374C21.1387 16.6025 21.2145 16.4196 21.2145 16.2289C21.2145 16.0381 21.1387 15.8552 21.0038 15.7203C20.8689 15.5854 20.686 15.5096 20.4952 15.5096ZM11.5703 13.8471L12.6309 11.2445L13.603 13.8456L11.5703 13.8471ZM15.4149 14.5892L15.4179 14.5649C15.4174 14.3837 15.3482 14.2094 15.2244 14.0772L13.6305 9.81057C13.5637 9.60724 13.4364 9.42915 13.2657 9.30008C13.0949 9.17101 12.8889 9.09712 12.675 9.08828C12.4598 9.08818 12.2496 9.15318 12.072 9.27475C11.8944 9.39632 11.7578 9.56876 11.68 9.76942L9.14743 15.9789C9.07529 16.1556 9.07626 16.3536 9.15014 16.5295C9.22401 16.7054 9.36472 16.8447 9.54133 16.9169C9.71794 16.989 9.91597 16.988 10.0919 16.9141C10.2678 16.8403 10.4071 16.6996 10.4792 16.5229L10.9851 15.2841H14.1394L14.5935 16.5031C14.6245 16.5943 14.6734 16.6782 14.7375 16.7501C14.8015 16.822 14.8793 16.8802 14.9662 16.9215C15.0532 16.9627 15.1476 16.9861 15.2437 16.9902C15.3399 16.9943 15.4359 16.9791 15.526 16.9455C15.6162 16.9118 15.6987 16.8604 15.7686 16.7943C15.8386 16.7281 15.8945 16.6487 15.9332 16.5605C15.9718 16.4724 15.9924 16.3774 15.9937 16.2812C15.9949 16.1849 15.9769 16.0894 15.9406 16.0003L15.4149 14.5892ZM10.3512 9.89895C10.3516 9.80451 10.3334 9.71093 10.2975 9.62358C10.2615 9.53624 10.2087 9.45686 10.142 9.39001C10.0753 9.32316 9.99604 9.27017 9.90877 9.23408C9.8215 9.19798 9.72796 9.17951 9.63352 9.17971H4.68876C4.49801 9.17971 4.31507 9.25548 4.18018 9.39037C4.0453 9.52525 3.96952 9.70819 3.96952 9.89895C3.96952 10.0897 4.0453 10.2726 4.18018 10.4075C4.31507 10.5424 4.49801 10.6182 4.68876 10.6182H6.45638V16.3111C6.45638 16.5019 6.53216 16.6848 6.66704 16.8197C6.80192 16.9546 6.98487 17.0304 7.17562 17.0304C7.36637 17.0304 7.54931 16.9546 7.6842 16.8197C7.81908 16.6848 7.89486 16.5019 7.89486 16.3111V10.6182H9.632C9.72657 10.6186 9.82027 10.6003 9.90772 10.5643C9.99516 10.5283 10.0746 10.4753 10.1415 10.4084C10.2083 10.3416 10.2613 10.2621 10.2973 10.1747C10.3333 10.0872 10.3516 9.99351 10.3512 9.89895Z" fill="black"/>
</svg>
