<svg width="75" height="76" viewBox="0 0 75 76" fill="none" xmlns="http://www.w3.org/2000/svg">
<path d="M65 18.648C65 14.1213 61.2985 10.4375 56.75 10.4375H18.25C13.7015 10.4375 10 14.1213 10 18.648V26.396C10 29.2779 11.0505 31.8971 12.75 33.9114V56.9638C12.75 59.9826 15.2167 62.4375 18.25 62.4375H56.75C59.7833 62.4375 62.25 59.9826 62.25 56.9638V33.9087C63.9495 31.8971 65 29.2779 65 26.3933V18.648ZM59.5 18.648V26.396C59.5 29.516 57.1652 32.1762 54.2997 32.3268L54 32.3322C50.9667 32.3322 48.5 29.8773 48.5 26.8586V15.9112H56.75C58.268 15.9112 59.5 17.14 59.5 18.648ZM32 15.9112H43V26.8586C43 29.8773 40.5333 32.3322 37.5 32.3322C34.4667 32.3322 32 29.8773 32 26.8586V15.9112ZM15.5 18.648C15.5 17.14 16.732 15.9112 18.25 15.9112H26.5V26.8586C26.5 29.8773 24.0333 32.3322 21 32.3322L20.7002 32.324C17.8347 32.1762 15.5 29.516 15.5 26.396V18.648ZM32 56.9638V48.7533H43V56.9638H32ZM48.5 56.9638V48.7533C48.5 45.7346 46.0333 43.2796 43 43.2796H32C28.9667 43.2796 26.5 45.7346 26.5 48.7533V56.9638H18.25V37.4474C18.9503 37.6335 19.6718 37.7475 20.4143 37.7895C22.0721 37.8786 23.7287 37.5922 25.2593 36.9517C26.7898 36.3113 28.1543 35.3335 29.25 34.092C31.2657 36.3691 34.2193 37.8059 37.5 37.8059C40.7807 37.8059 43.7343 36.3691 45.75 34.092C46.8457 35.3335 48.2102 36.3113 49.7407 36.9517C51.2713 37.5922 52.9279 37.8786 54.5857 37.7895C55.3301 37.7475 56.0515 37.6335 56.75 37.4474V56.9638H48.5Z" fill="white"/>
</svg>
