<svg width="75" height="76" viewBox="0 0 75 76" fill="none" xmlns="http://www.w3.org/2000/svg">
<path d="M26.9 35.3517C26.9 34.6489 27.1792 33.9749 27.6762 33.4779C28.1731 32.9809 28.8472 32.7017 29.55 32.7017H45.45C46.1528 32.7017 46.8268 32.9809 47.3238 33.4779C47.8208 33.9749 48.1 34.6489 48.1 35.3517C48.1 36.0546 47.8208 36.7286 47.3238 37.2256C46.8268 37.7225 46.1528 38.0017 45.45 38.0017H29.55C28.8472 38.0017 28.1731 37.7225 27.6762 37.2256C27.1792 36.7286 26.9 36.0546 26.9 35.3517ZM29.55 43.3017C28.8472 43.3017 28.1731 43.5809 27.6762 44.0779C27.1792 44.5749 26.9 45.2489 26.9 45.9517C26.9 46.6546 27.1792 47.3286 27.6762 47.8256C28.1731 48.3225 28.8472 48.6017 29.55 48.6017H40.15C40.8528 48.6017 41.5268 48.3225 42.0238 47.8256C42.5208 47.3286 42.8 46.6546 42.8 45.9517C42.8 45.2489 42.5208 44.5749 42.0238 44.0779C41.5268 43.5809 40.8528 43.3017 40.15 43.3017H29.55ZM11 38.0017C11.0013 32.1919 12.9119 26.5435 16.4378 21.9258C19.9636 17.3081 24.9092 13.9771 30.5135 12.4454C36.1178 10.9136 42.0702 11.2661 47.4546 13.4486C52.839 15.631 57.3569 19.5225 60.3131 24.524C63.2693 29.5256 64.4998 35.36 63.8155 41.1294C63.1311 46.8988 60.5696 52.2834 56.5254 56.4546C52.4811 60.6257 47.1781 63.3522 41.4326 64.2143C35.6871 65.0765 29.8174 64.0267 24.727 61.2263L14.4238 64.3639C13.9642 64.5039 13.4753 64.5163 13.0092 64.3999C12.5431 64.2834 12.1175 64.0425 11.7778 63.7028C11.4381 63.3631 11.1971 62.9374 11.0806 62.4713C10.9642 62.0052 10.9766 61.5163 11.1166 61.0567L14.2542 50.7376C12.1171 46.833 10.9979 42.453 11 38.0017ZM37.5 16.8018C33.7367 16.8014 30.0411 17.8029 26.7928 19.7033C23.5446 21.6036 20.8607 24.3344 19.0169 27.6151C17.1731 30.8958 16.2359 34.6082 16.3014 38.371C16.367 42.1337 17.433 45.8112 19.3899 49.0257C19.5842 49.3451 19.7087 49.7019 19.7552 50.0727C19.8018 50.4436 19.7694 50.8201 19.6602 51.1775L17.6303 57.8502L24.2924 55.8203C24.651 55.7111 25.0287 55.6792 25.4005 55.7267C25.7724 55.7742 26.1299 55.9 26.4495 56.0959C29.2435 57.8018 32.3947 58.8374 35.656 59.1217C38.9172 59.4059 42.2 58.931 45.247 57.7342C48.2941 56.5374 51.0225 54.6512 53.2186 52.2235C55.4147 49.7958 57.0187 46.8924 57.905 43.7411C58.7912 40.5897 58.9356 37.2759 58.3268 34.0593C57.7181 30.8428 56.3727 27.8109 54.3961 25.2014C52.4195 22.5918 49.8654 20.4755 46.934 19.0182C44.0027 17.5609 40.7736 16.8023 37.5 16.8018Z" fill="white"/>
</svg>
