<svg width="75" height="76" viewBox="0 0 75 76" fill="none" xmlns="http://www.w3.org/2000/svg">
<path d="M60.6679 43.73L60.4024 41.0615L60.3139 41.0695L60.2281 41.0856L60.6679 43.73ZM60.6679 43.73L60.9361 46.3985L61.0246 46.3905L61.1105 46.3771L60.6679 43.73ZM49.8329 58.4324L51.5306 56.3565L51.5091 56.3405L49.8329 58.4324ZM49.8329 58.4324L48.1352 60.5082L48.1567 60.527L49.8329 58.4324ZM25.1698 58.4324L23.4722 56.3592L23.4292 56.3941L23.389 56.429L25.1698 58.4324ZM25.1698 58.4324L26.8675 60.5109L26.9104 60.476L26.9506 60.4385L25.1698 58.4324ZM14.3321 32.2727V29.5908H14.198L14.0666 29.6042L14.3321 32.2727ZM14.3321 32.2727V34.9547H14.4662L14.6003 34.9413L14.3321 32.2727ZM45.8985 14.5639C45.8543 14.0481 45.7908 13.5338 45.7135 13.0218C45.6307 12.4582 45.4587 11.9114 45.2039 11.4019L40.4381 13.8639C40.3764 13.7432 40.3898 13.7003 40.4247 13.9122C40.4649 14.1509 40.4998 14.4835 40.5615 15.1003L45.8985 14.5639ZM46.1533 17.1118C46.3223 17.3317 46.2659 17.4309 46.1721 16.9079C46.0836 16.4091 46.0138 15.7091 45.8985 14.5639L40.5588 15.0976C40.6661 16.1543 40.7572 17.1037 40.894 17.86C41.0254 18.5841 41.2561 19.5362 41.8863 20.3623L46.1533 17.1118ZM46.1533 17.1118L41.8863 20.3623C42.4603 21.1155 43.2234 21.7033 44.0982 22.066C44.973 22.4287 45.9281 22.5534 46.8667 22.4274L46.1533 17.1118ZM48.1326 15.4892C47.5315 15.9972 46.9134 16.4847 46.2793 16.9508C45.8422 17.2539 45.8771 17.1466 46.1533 17.1118L46.8667 22.4274C47.8966 22.2879 48.7333 21.7783 49.3394 21.3546C49.9697 20.9201 50.7072 20.314 51.5279 19.6408L48.1326 15.4892ZM50.8574 13.7459C50.3175 13.9255 49.8097 14.1899 49.3528 14.5291C48.9774 14.7972 48.5563 15.1432 48.1326 15.4892L51.5279 19.6408C52.008 19.2493 52.2681 19.0374 52.4666 18.8979C52.6409 18.7719 52.6168 18.8148 52.4907 18.855L50.8574 13.7459ZM54.6229 13.9337C53.4318 13.4175 52.0939 13.3508 50.8574 13.7459L52.4907 18.855L54.6229 13.9337ZM57.16 15.9397C56.7988 15.5685 56.4259 15.2089 56.0416 14.8616C55.6201 14.4788 55.1402 14.1656 54.6202 13.9337L52.4907 18.855C52.3673 18.8014 52.3486 18.7585 52.5095 18.9006C52.6919 19.0615 52.9306 19.2949 53.3677 19.732L57.16 15.9397ZM59.5576 18.3374L57.16 15.9397L53.3677 19.732L55.7654 22.1297L59.5576 18.3374ZM61.5637 20.8745C61.3318 20.3545 61.0186 19.8746 60.6358 19.4531C60.2884 19.0697 59.9289 18.6976 59.5576 18.3374L55.7654 22.1323C56.2025 22.5695 56.4358 22.8082 56.5968 22.9906C56.7389 23.1515 56.696 23.1327 56.6424 23.0093L61.5637 20.8745ZM61.7514 24.64C62.1466 23.4034 62.0799 22.0656 61.5637 20.8745L56.6424 23.0093L61.7514 24.64ZM60.0082 27.3648C60.3412 26.9684 60.6614 26.5615 60.9683 26.1445C61.2526 25.7476 61.5583 25.2541 61.7514 24.64L56.6424 23.0093C56.6826 22.8833 56.7228 22.8565 56.5994 23.0335C56.46 23.2293 56.2508 23.4894 55.8565 23.9695L60.0082 27.3648ZM58.3856 29.3468C58.3508 29.623 58.2435 29.6552 58.5465 29.218C58.8335 28.8023 59.2787 28.2552 60.0082 27.3648L55.8565 23.9695C55.1861 24.7901 54.5773 25.5277 54.1401 26.1579C53.719 26.764 53.2095 27.6008 53.07 28.6307L58.3856 29.3468ZM58.3856 29.3468L53.07 28.6307C52.944 29.5692 53.0686 30.5244 53.4313 31.3992C53.7941 32.2739 54.3819 33.0371 55.1351 33.611L58.3856 29.3468ZM60.9335 29.6015C60.1492 29.5359 59.3674 29.4438 58.5894 29.3253C58.0665 29.2314 58.1657 29.1778 58.3856 29.3468L55.1351 33.611C55.9611 34.2413 56.9106 34.4719 57.64 34.6034C58.3937 34.7374 59.3431 34.8313 60.3998 34.9386L60.9335 29.6015ZM64.0955 30.2935C63.586 30.0387 63.0392 29.8667 62.4756 29.7839C61.9636 29.7066 61.4493 29.6458 60.9335 29.6015L60.3998 34.9386C60.7968 34.9735 61.193 35.0182 61.5879 35.0727C61.8024 35.1102 61.7568 35.1236 61.6361 35.062L64.0955 30.2935ZM66.6245 33.0907C66.1479 31.8829 65.2493 30.8891 64.0955 30.2935L61.6388 35.0673L66.6245 33.0907ZM67 36.3037C67 35.7566 67 35.2122 66.9705 34.7509C66.9434 34.1816 66.8257 33.6203 66.6218 33.0881L61.6388 35.0673C61.5905 34.9413 61.6066 34.8984 61.6227 35.1129C61.6388 35.3543 61.6388 35.6895 61.6388 36.3091L67 36.3037ZM67 39.6937V36.3037H61.6361V39.6937H67ZM66.6245 42.9066C66.8605 42.3086 66.9383 41.7346 66.9705 41.2438C67 40.7852 67 40.2408 67 39.6937H61.6361C61.6361 40.3132 61.6361 40.6484 61.62 40.8898C61.6039 41.1044 61.5879 41.0615 61.6361 40.9354L66.6245 42.9066ZM64.0955 45.7039C65.2493 45.1083 66.1479 44.1144 66.6245 42.9066L61.6388 40.9381L64.0955 45.7039ZM60.9335 46.3958C61.4806 46.3422 62.0196 46.2886 62.4756 46.2135C62.9583 46.133 63.5215 45.9989 64.0955 45.7039L61.6388 40.9381C61.7568 40.8764 61.8024 40.8898 61.5905 40.9247C61.1958 40.9813 60.7997 41.0269 60.4024 41.0615L60.9335 46.3958ZM58.3883 46.6506C58.1657 46.8196 58.0665 46.7659 58.5894 46.6721C59.0883 46.5836 59.7883 46.5112 60.9335 46.3958L60.3998 41.0588C59.3457 41.1661 58.3937 41.2572 57.64 41.394C56.9132 41.5254 55.9611 41.7561 55.1351 42.3863L58.3883 46.6506ZM58.3883 46.6506L55.1351 42.3863C54.3819 42.9603 53.7941 43.7234 53.4313 44.5982C53.0686 45.473 52.944 46.4281 53.07 47.3667L58.3883 46.6506ZM60.0082 48.6299C59.5002 48.0297 59.0127 47.4125 58.5465 46.7793C58.2435 46.3422 58.3534 46.3744 58.3883 46.6506L53.07 47.3667C53.2095 48.3966 53.719 49.2333 54.1428 49.8394C54.5799 50.4697 55.1861 51.2072 55.8565 52.0279L60.0082 48.6299ZM61.7514 51.3547C61.5716 50.8158 61.3073 50.3088 60.9683 49.8528C60.7001 49.4747 60.3542 49.0563 60.0082 48.6299L55.8565 52.0279C56.2481 52.508 56.46 52.7654 56.5994 52.9639C56.7255 53.1382 56.6853 53.1168 56.6424 52.9907L61.7514 51.3547ZM61.5637 55.1229C62.0805 53.931 62.1472 52.5921 61.7514 51.3547L56.6424 52.9907L61.5637 55.1229ZM59.5576 57.66C59.9465 57.2711 60.33 56.8903 60.6358 56.5416C60.9576 56.1715 61.3062 55.7129 61.5637 55.1202L56.6424 52.988C56.696 52.8647 56.7389 52.8486 56.5968 53.0095C56.4358 53.1919 56.2025 53.4279 55.7654 53.8677L59.5576 57.66ZM57.16 60.0549L59.5576 57.66L55.7654 53.8677L53.3677 56.2627L57.16 60.0549ZM54.6229 62.0637C55.1431 61.831 55.6229 61.5168 56.0443 61.1331C56.3903 60.83 56.7738 60.4438 57.16 60.0549L53.3677 56.2627C53.0894 56.5477 52.8032 56.825 52.5095 57.0941C52.3486 57.2389 52.3673 57.196 52.4907 57.1424L54.6229 62.0637ZM50.8574 62.2514C52.0939 62.6466 53.4318 62.5799 54.6229 62.0637L52.4907 57.1424L50.8574 62.2514ZM48.1326 60.5082C48.5563 60.8542 48.9747 61.2001 49.3528 61.4683C49.7498 61.7499 50.2432 62.0557 50.8574 62.2514L52.4907 57.1424C52.6168 57.1826 52.6409 57.2228 52.4639 57.0994C52.1451 56.8606 51.8329 56.6128 51.5279 56.3565L48.1326 60.5082ZM46.1533 58.8883C45.8771 58.8481 45.8422 58.7408 46.2793 59.0439C46.695 59.3335 47.2395 59.776 48.1299 60.5055L51.5279 56.3565C50.7072 55.6834 49.9697 55.0773 49.3394 54.6401C48.7333 54.2164 47.8966 53.7095 46.8667 53.57L46.1533 58.8883ZM46.1533 58.8883L46.8667 53.57C45.9281 53.444 44.973 53.5686 44.0982 53.9313C43.2234 54.2941 42.4603 54.8819 41.8863 55.6351L46.1533 58.8883ZM45.8958 61.4335C46.0112 60.2883 46.0836 59.5856 46.1721 59.0894C46.2659 58.5665 46.3196 58.663 46.1506 58.8856L41.8863 55.6324C41.2561 56.4585 41.0254 57.4105 40.894 58.1374C40.7599 58.8937 40.6687 59.8431 40.5615 60.8998L45.8958 61.4335ZM45.2012 64.5955C45.4962 64.0215 45.6303 63.4583 45.7108 62.9756C45.7912 62.5196 45.8395 61.9806 45.8958 61.4335L40.5615 60.8998C40.5261 61.2979 40.4796 61.6923 40.422 62.0879C40.3871 62.3024 40.3737 62.2568 40.4354 62.1361L45.2012 64.5955ZM42.4093 67.1245C43.6151 66.6468 44.6069 65.7483 45.2012 64.5955L40.4381 62.1388L42.4093 67.1245ZM39.191 67.5C39.7408 67.5 40.2852 67.5 40.7465 67.4705C41.2346 67.4383 41.8086 67.3659 42.4093 67.1245L40.4381 62.1388C40.5641 62.0905 40.607 62.1066 40.3925 62.1227C39.994 62.1392 39.5951 62.1446 39.1964 62.1388L39.191 67.5ZM35.8037 67.5H39.191L39.1937 62.1361H35.8037V67.5ZM32.5907 67.1245C33.1888 67.3605 33.7627 67.4383 34.2535 67.4705C34.7121 67.5 35.2566 67.5 35.8037 67.5V62.1361C35.1842 62.1361 34.8489 62.1361 34.6076 62.12C34.393 62.1039 34.4359 62.0879 34.562 62.1361L32.5907 67.1245ZM29.7935 64.5955C30.3891 65.7493 31.3829 66.6479 32.5907 67.1245L34.562 62.1361L29.7935 64.5955ZM29.1015 61.4335C29.1552 61.9806 29.2088 62.5196 29.2839 62.9756C29.3644 63.4583 29.4985 64.0215 29.7935 64.5955L34.5673 62.1388C34.629 62.2568 34.6156 62.3024 34.5807 62.0905C34.5241 61.6958 34.4785 61.2997 34.444 60.9024L29.1015 61.4335ZM28.8468 58.8856C28.6778 58.6657 28.7314 58.5638 28.8253 59.0894C28.9138 59.5856 28.9862 60.2883 29.1015 61.4335L34.4386 60.8998C34.3313 59.8431 34.2401 58.8937 34.1034 58.1374C33.9719 57.4132 33.7413 56.4611 33.111 55.6351L28.8468 58.8856ZM28.8468 58.8856L33.111 55.6351C32.5371 54.8819 31.7739 54.2941 30.8992 53.9313C30.0244 53.5686 29.0692 53.444 28.1307 53.57L28.8468 58.8856ZM26.8648 60.5082C27.7579 59.7787 28.3023 59.3335 28.718 59.0465C29.1552 58.7435 29.123 58.8508 28.8468 58.8856L28.1307 53.57C27.1008 53.7095 26.264 54.219 25.6579 54.6428C25.0277 55.0773 24.2901 55.6834 23.4695 56.3565L26.8648 60.5082ZM24.14 62.2514C24.6798 62.0719 25.1877 61.8075 25.6445 61.4683C26.02 61.2001 26.4411 60.8542 26.8648 60.5082L23.4722 56.3592C23.1662 56.6155 22.8559 56.8633 22.5362 57.1021C22.3618 57.2282 22.386 57.188 22.512 57.145L24.14 62.2514ZM20.3745 62.0637C21.5656 62.5799 22.9034 62.6466 24.14 62.2514L22.5067 57.1424L20.3745 62.0637ZM17.8347 60.0576C18.2236 60.4465 18.6071 60.83 18.9558 61.1358C19.3232 61.4576 19.7818 61.8089 20.3772 62.0664L22.5067 57.1424C22.63 57.196 22.6488 57.2389 22.4879 57.0968C22.1941 56.8277 21.908 56.5504 21.6297 56.2654L17.8347 60.0576ZM15.4397 57.66L17.8374 60.0576L21.6297 56.2654L19.232 53.8677L15.4397 57.66ZM13.4337 55.1229C13.6884 55.7129 14.0398 56.1742 14.3616 56.5443C14.6674 56.8903 15.0509 57.2738 15.4397 57.66L19.232 53.8677C18.947 53.5894 18.6697 53.3032 18.4006 53.0095C18.2585 52.8486 18.3014 52.8673 18.355 52.9907L13.4337 55.1229ZM13.2459 51.3574C12.8508 52.5939 12.9175 53.9318 13.4337 55.1229L18.355 52.9907L13.2459 51.3574ZM14.9892 48.6326C14.6561 49.0289 14.3359 49.4359 14.0291 49.8528C13.6899 50.3097 13.4255 50.8175 13.2459 51.3574L18.355 52.9907C18.3121 53.1168 18.2746 53.1409 18.3979 52.9639C18.5374 52.7681 18.7466 52.508 19.1408 52.0279L14.9892 48.6326ZM16.6091 46.6506C16.6466 46.3744 16.7539 46.3422 16.4508 46.7793C16.1639 47.195 15.7187 47.7422 14.9892 48.6326L19.1408 52.0279C19.8113 51.2072 20.4201 50.4697 20.8573 49.8394C21.2783 49.2333 21.7879 48.3966 21.9274 47.3667L16.6091 46.6506ZM16.6091 46.6506L21.9274 47.3667C22.0534 46.4281 21.9287 45.473 21.566 44.5982C21.2033 43.7234 20.6155 42.9603 19.8623 42.3863L16.6091 46.6506ZM14.0612 46.3958C15.2091 46.5112 15.9118 46.5836 16.4079 46.6721C16.9309 46.7659 16.8317 46.8196 16.6091 46.6506L19.8623 42.3863C19.0362 41.7561 18.0868 41.5254 17.3573 41.394C16.6037 41.2599 15.6543 41.1661 14.5949 41.0588L14.0612 46.3958ZM10.9019 45.7039C11.4758 45.9989 12.0391 46.133 12.5218 46.2135C12.9777 46.2886 13.5168 46.3449 14.0639 46.3985L14.5949 41.0588C14.1977 41.0251 13.8042 40.9804 13.4095 40.9247C13.195 40.8871 13.2406 40.8737 13.3612 40.9354L10.9019 45.7039ZM8.37553 42.9093C8.85219 44.1171 9.75079 45.111 10.9046 45.7066L13.3639 40.9381L8.37553 42.9093ZM8.00005 39.6964C8.00005 40.2435 8.00005 40.7879 8.02956 41.2492C8.06174 41.7373 8.13683 42.3112 8.37821 42.912L13.3639 40.9354C13.4122 41.0615 13.3961 41.1044 13.3827 40.8898C13.3654 40.4922 13.3591 40.0943 13.3639 39.6964H8.00005ZM8.00005 36.3064V39.6964H13.3639V36.3064H8.00005ZM8.37553 33.0907C8.17263 33.6231 8.05584 34.1844 8.02956 34.7535C7.99737 35.2148 8.00005 35.7593 8.00005 36.3091H13.3639C13.3639 35.6869 13.3639 35.3516 13.3827 35.1102C13.3961 34.8957 13.4122 34.9386 13.3639 35.0646L8.37553 33.0907ZM10.9046 30.2988C9.75175 30.8931 8.85328 31.8849 8.37553 33.0907L13.3639 35.0646L10.9046 30.2988ZM14.0666 29.6015C13.5195 29.6579 12.9804 29.7088 12.5245 29.7893C12.0417 29.8697 11.4785 30.0038 10.9046 30.2988L13.3639 35.0646C13.2432 35.1263 13.2003 35.1129 13.4122 35.0781C13.8069 35.0214 14.2031 34.9758 14.6003 34.9413L14.0666 29.6015ZM16.6144 29.3494C16.837 29.1805 16.9363 29.2341 16.4106 29.328C15.9145 29.4165 15.2118 29.4889 14.0666 29.6042L14.6003 34.9413C15.6543 34.834 16.6064 34.7428 17.3627 34.606C18.0895 34.4746 19.0416 34.244 19.8676 33.6137L16.6144 29.3494ZM16.6144 29.3494L19.8676 33.6137C20.6204 33.0394 21.2077 32.2762 21.5699 31.4014C21.9321 30.5267 22.0564 29.5717 21.93 28.6334L16.6144 29.3494ZM14.9919 27.3675C15.7214 28.2579 16.1666 28.805 16.4562 29.2207C16.7593 29.6579 16.652 29.6257 16.6144 29.3494L21.93 28.6334C21.7906 27.6035 21.2837 26.7694 20.8599 26.1606C20.4228 25.5304 19.814 24.7928 19.1435 23.9722L14.9919 27.3675ZM13.2486 24.64C13.4444 25.2568 13.7474 25.7476 14.0317 26.1472C14.2999 26.5227 14.6459 26.9437 14.9919 27.3675L19.1435 23.9722C18.8872 23.6662 18.6395 23.3559 18.4006 23.0362C18.2746 22.8618 18.3175 22.8833 18.3577 23.0093L13.2486 24.64ZM13.4363 20.8772C12.9209 22.0675 12.8542 23.4043 13.2486 24.64L18.3577 23.0093L13.4363 20.8772ZM15.4424 18.3374C15.0536 18.7263 14.67 19.1071 14.3643 19.4558C13.9815 19.8773 13.6682 20.3571 13.4363 20.8772L18.3577 23.0093C18.3041 23.1327 18.2611 23.1515 18.4033 22.9879C18.5642 22.8055 18.7975 22.5695 19.2347 22.1297L15.4424 18.3374ZM17.8401 15.9424L15.4424 18.3374L19.2347 22.1297L21.635 19.7347L17.8401 15.9424ZM20.3772 13.9337C19.857 14.1664 19.3771 14.4805 18.9558 14.8643C18.5724 15.2116 18.2003 15.5712 17.8401 15.9424L21.635 19.7347C22.0722 19.2949 22.3082 19.0615 22.4906 18.9033C22.6515 18.7585 22.6327 18.8014 22.5093 18.855L20.3772 13.9337ZM24.1426 13.7459C22.9061 13.3508 21.5683 13.4175 20.3772 13.9337L22.5093 18.855L24.1426 13.7459ZM26.8648 15.4892C26.4411 15.1432 26.0254 14.7999 25.6472 14.5317C25.1906 14.1916 24.6827 13.9263 24.1426 13.7459L22.5093 18.855C22.3833 18.8148 22.3591 18.7746 22.5362 18.8979C22.7319 19.0401 22.9921 19.2493 23.4722 19.6435L26.8648 15.4892ZM28.8494 17.1118C29.1257 17.1493 29.1579 17.2566 28.7207 16.9535C28.0876 16.4873 27.4704 15.9998 26.8702 15.4919L23.4722 19.6435C24.2928 20.314 25.0277 20.9201 25.6579 21.3599C26.264 21.781 27.1008 22.2879 28.1307 22.4274L28.8494 17.1118ZM28.8494 17.1118L28.1334 22.4274C29.0719 22.5534 30.0271 22.4287 30.9019 22.066C31.7766 21.7033 32.5398 21.1155 33.1137 20.3623L28.8494 17.1118ZM29.1042 14.5639C28.9889 15.7118 28.9165 16.4145 28.828 16.9106C28.7341 17.4336 28.6805 17.3344 28.8494 17.1118L33.1137 20.3623C33.744 19.5362 33.9746 18.5868 34.106 17.86C34.2401 17.1064 34.3367 16.1543 34.4413 15.0976L29.1042 14.5639ZM29.7962 11.4046C29.5414 11.9141 29.3694 12.4609 29.2866 13.0245C29.2115 13.4804 29.1579 14.0195 29.1042 14.5666L34.4413 15.0976C34.4762 14.7005 34.5209 14.3071 34.5754 13.9122C34.6129 13.6976 34.6263 13.7459 34.5646 13.8639L29.7962 11.4046ZM32.5934 8.87553C31.3856 9.35219 30.3917 10.2508 29.7962 11.4046L34.5646 13.8639L32.5934 8.87553ZM35.8064 8.50005C35.2593 8.50005 34.7148 8.50005 34.2535 8.52956C33.6844 8.55584 33.1231 8.67263 32.5907 8.87553L34.5673 13.8639C34.4413 13.9122 34.3984 13.8961 34.6129 13.8827C34.8543 13.8666 35.1895 13.8639 35.8091 13.8639L35.8064 8.50005ZM39.1964 8.50005H35.8064V13.8639H39.1964V8.50005ZM42.4093 8.87553C41.8769 8.67263 41.3156 8.55584 40.7465 8.52956C40.2906 8.49737 39.7461 8.50005 39.199 8.50005V13.8639C39.8186 13.8639 40.1538 13.8639 40.3952 13.8827C40.6097 13.8961 40.5641 13.9122 40.4381 13.8639L42.4093 8.87553ZM45.2066 11.4046C44.611 10.2508 43.6171 9.35219 42.4093 8.87553L40.4381 13.8639L45.2066 11.4046ZM45.5472 38.0014C45.5472 40.1352 44.6995 42.1817 43.1906 43.6906C41.6817 45.1995 39.6352 46.0472 37.5014 46.0472V51.4111C41.0578 51.4111 44.4686 49.9983 46.9834 47.4834C49.4983 44.9686 50.9111 41.5578 50.9111 38.0014H45.5472ZM37.5014 29.9556C39.6352 29.9556 41.6817 30.8032 43.1906 32.3121C44.6995 33.821 45.5472 35.8675 45.5472 38.0014H50.9111C50.9111 34.4449 49.4983 31.0341 46.9834 28.5193C44.4686 26.0045 41.0578 24.5917 37.5014 24.5917V29.9556ZM29.4556 38.0014C29.4556 35.8675 30.3032 33.821 31.8121 32.3121C33.321 30.8032 35.3675 29.9556 37.5014 29.9556V24.5917C33.9449 24.5917 30.5341 26.0045 28.0193 28.5193C25.5045 31.0341 24.0917 34.4449 24.0917 38.0014H29.4556ZM37.5014 46.0472C35.3675 46.0472 33.321 45.1995 31.8121 43.6906C30.3032 42.1817 29.4556 40.1352 29.4556 38.0014H24.0917C24.0917 41.5578 25.5045 44.9686 28.0193 47.4834C30.5341 49.9983 33.9449 51.4111 37.5014 51.4111V46.0472Z" fill="white"/>
</svg>
