<svg width="75" height="76" viewBox="0 0 75 76" fill="none" xmlns="http://www.w3.org/2000/svg">
<path d="M15 38C15 40.9547 15.582 43.8806 16.7127 46.6104C17.8434 49.3402 19.5008 51.8206 21.5901 53.9099C23.6794 55.9992 26.1598 57.6566 28.8896 58.7873C31.6194 59.918 34.5453 60.5 37.5 60.5C40.4547 60.5 43.3806 59.918 46.1104 58.7873C48.8402 57.6566 51.3206 55.9992 53.4099 53.9099C55.4992 51.8206 57.1566 49.3402 58.2873 46.6104C59.418 43.8806 60 40.9547 60 38C60 32.0326 57.6295 26.3097 53.4099 22.0901C49.1903 17.8705 43.4674 15.5 37.5 15.5C31.5326 15.5 25.8097 17.8705 21.5901 22.0901C17.3705 26.3097 15 32.0326 15 38Z" stroke="white" stroke-width="5" stroke-linecap="round" stroke-linejoin="round"/>
<path d="M37.5 25.5V38L45 45.5" stroke="white" stroke-width="5" stroke-linecap="round" stroke-linejoin="round"/>
</svg>
