<svg width="75" height="76" viewBox="0 0 75 76" fill="none" xmlns="http://www.w3.org/2000/svg">
<path d="M37.4357 36.0673C34.2348 33.7185 29.4376 29.6112 15.6839 29.6112V59.0205C29.4376 59.0205 34.2348 63.1277 37.4357 65.4766M37.4357 36.0673V65.4766M37.4357 36.0673C40.6366 33.7185 45.4338 29.6112 59.1875 29.6112V59.0205C45.4338 59.0205 40.6366 63.1277 37.4357 65.4766M45.9344 10.7059V21.0357M53.5388 10.4766H24.9658C24.1675 10.4756 23.3848 10.6963 22.7063 11.1137L15.1875 15.7604L22.7063 20.3986C23.3848 20.816 24.1675 21.0366 24.9658 21.0357H53.5388C54.2497 21.0557 54.9575 20.934 55.6202 20.6778C56.283 20.4216 56.8872 20.0361 57.3972 19.544C57.9072 19.052 58.3126 18.4634 58.5894 17.8132C58.8662 17.1629 59.0089 16.4642 59.0089 15.7582C59.0089 15.0523 58.8662 14.3536 58.5894 13.7033C58.3126 13.0531 57.9072 12.4645 57.3972 11.9725C56.8872 11.4804 56.283 11.0949 55.6202 10.8387C54.9575 10.5825 54.2497 10.4565 53.5388 10.4766Z" stroke="white" stroke-width="5" stroke-linecap="round" stroke-linejoin="round"/>
</svg>
