<svg width="75" height="76" viewBox="0 0 75 76" fill="none" xmlns="http://www.w3.org/2000/svg">
<path d="M53.625 11.5234C55.0505 11.5234 56.4177 12.0897 57.4257 13.0977C58.4337 14.1057 59 15.4729 59 16.8984V48.0358C58.9997 49.4612 58.4332 50.8282 57.4251 51.8359L45.5625 63.6986C44.5547 64.7066 43.1878 65.2731 41.7624 65.2734H21.375C19.9495 65.2734 18.5823 64.7071 17.5743 63.6991C16.5663 62.6911 16 61.324 16 59.8984V16.8984C16 15.4729 16.5663 14.1057 17.5743 13.0977C18.5823 12.0897 19.9495 11.5234 21.375 11.5234H53.625ZM53.625 16.8984H21.375V59.8984H37.5V47.8047C37.5 46.7355 37.9247 45.7102 38.6807 44.9542C39.4367 44.1982 40.4621 43.7734 41.5313 43.7734H53.625V16.8984ZM52.5124 49.1484H42.875V58.7858L52.5124 49.1484ZM32.125 35.7109C32.8378 35.7109 33.5213 35.9941 34.0253 36.4981C34.5294 37.0021 34.8125 37.6857 34.8125 38.3984C34.8125 39.1112 34.5294 39.7948 34.0253 40.2988C33.5213 40.8028 32.8378 41.0859 32.125 41.0859H29.4375C28.7247 41.0859 28.0412 40.8028 27.5372 40.2988C27.0331 39.7948 26.75 39.1112 26.75 38.3984C26.75 37.6857 27.0331 37.0021 27.5372 36.4981C28.0412 35.9941 28.7247 35.7109 29.4375 35.7109H32.125ZM45.5625 24.9609C46.2753 24.9609 46.9588 25.2441 47.4629 25.7481C47.9669 26.2521 48.25 26.9357 48.25 27.6484C48.25 28.3612 47.9669 29.0448 47.4629 29.5488C46.9588 30.0528 46.2753 30.3359 45.5625 30.3359H29.4375C28.7247 30.3359 28.0412 30.0528 27.5372 29.5488C27.0331 29.0448 26.75 28.3612 26.75 27.6484C26.75 26.9357 27.0331 26.2521 27.5372 25.7481C28.0412 25.2441 28.7247 24.9609 29.4375 24.9609H45.5625Z" fill="white"/>
</svg>
