<svg width="75" height="76" viewBox="0 0 75 76" fill="none" xmlns="http://www.w3.org/2000/svg">
<path d="M37.5001 27.5547V61.4993M14 30.1658C14 29.4733 14.2751 28.8091 14.7648 28.3195C15.2545 27.8298 15.9186 27.5547 16.6111 27.5547H58.3891C59.0816 27.5547 59.7458 27.8298 60.2354 28.3195C60.7251 28.8091 61.0002 29.4733 61.0002 30.1658V35.3881C61.0002 36.0806 60.7251 36.7447 60.2354 37.2344C59.7458 37.7241 59.0816 37.9992 58.3891 37.9992H16.6111C15.9186 37.9992 15.2545 37.7241 14.7648 37.2344C14.2751 36.7447 14 36.0806 14 35.3881V30.1658Z" stroke="white" stroke-width="5" stroke-linecap="round" stroke-linejoin="round"/>
<path d="M55.7745 38.0013V56.2791C55.7745 57.6641 55.2243 58.9924 54.2449 59.9718C53.2656 60.9512 51.9373 61.5014 50.5522 61.5014H24.441C23.056 61.5014 21.7277 60.9512 20.7483 59.9718C19.7689 58.9924 19.2188 57.6641 19.2188 56.2791V38.0013M25.7466 27.5568C24.0153 27.5568 22.3549 26.869 21.1307 25.6448C19.9065 24.4206 19.2188 22.7602 19.2188 21.029C19.2188 19.2977 19.9065 17.6373 21.1307 16.4131C22.3549 15.1889 24.0153 14.5011 25.7466 14.5011C28.2655 14.4573 30.7339 15.6794 32.8298 18.0083C34.9258 20.3372 36.5521 23.6646 37.4966 27.5568C38.4411 23.6646 40.0674 20.3372 42.1634 18.0083C44.2594 15.6794 46.7278 14.4573 49.2467 14.5011C50.978 14.5011 52.6383 15.1889 53.8625 16.4131C55.0867 17.6373 55.7745 19.2977 55.7745 21.029C55.7745 22.7602 55.0867 24.4206 53.8625 25.6448C52.6383 26.869 50.978 27.5568 49.2467 27.5568" stroke="white" stroke-width="5" stroke-linecap="round" stroke-linejoin="round"/>
</svg>
