<svg width="75" height="76" viewBox="0 0 75 76" fill="none" xmlns="http://www.w3.org/2000/svg">
<path d="M21.6895 17.4955C19.0578 19.1912 14.2764 17.3934 12.3256 20.2418C11.7314 21.1088 12.0246 22.2563 12.6112 24.5513L17.6858 49.4725C18.8334 53.9554 19.4046 56.1968 21.1871 57.5049C21.9139 58.0404 22.6662 58.2903 23.4745 58.4M21.6895 17.4955C25.2188 15.2183 22.174 12.5 27.2997 12.5L32.7951 16.8172C34.9856 18.5359 36.0796 19.3978 36.1612 20.6116C36.2428 21.8279 35.2763 22.8428 33.3408 24.87L31.9281 26.3491C30.9616 27.3614 30.4771 27.8689 29.8982 27.8255C29.3193 27.7822 28.9062 27.2084 28.0876 26.0634L21.6895 17.4955ZM53.3105 17.4955C55.9422 19.1912 60.7236 17.3934 62.6744 20.2418C63.2686 21.1088 62.9753 22.2563 62.3888 24.5513L57.3142 49.4725C56.1666 53.9554 55.5954 56.1968 53.8154 57.5049C53.0861 58.0404 52.3313 58.2903 51.5255 58.4M53.3105 17.4955C49.7812 15.2183 52.826 12.5 47.7003 12.5L42.2049 16.8172C40.0144 18.5359 38.9204 19.3978 38.8388 20.6116C38.7572 21.8279 39.7237 22.8428 41.6592 24.87L43.0719 26.3491C44.0384 27.3614 44.5229 27.8689 45.1018 27.8255C45.6807 27.7822 46.0938 27.2084 46.9124 26.0634L53.3105 17.4955ZM33.1317 25.25L35.3503 28.9526C35.873 29.8196 36.1332 30.2582 36.2122 30.7452C36.2887 31.2348 36.174 31.7296 35.947 32.7164L31.2523 53.1495C30.6224 56.6838 32.4891 58.4026 34.3022 60.6721C35.8093 62.5591 36.5641 63.5 37.5026 63.5C38.441 63.5 39.1958 62.5565 40.7029 60.6695C42.5135 58.4051 44.3827 56.6838 43.7528 53.1495L39.0556 32.7164C38.8286 31.7296 38.7164 31.2348 38.7929 30.7452C38.8694 30.2582 39.1321 29.8221 39.6523 28.9526L41.8708 25.25" stroke="white" stroke-width="5" stroke-linecap="round" stroke-linejoin="round"/>
</svg>
