<svg width="154" height="89" viewBox="0 0 154 89" fill="none" xmlns="http://www.w3.org/2000/svg">
<path d="M58.5479 88.0461C64.8931 88.0993 71.3037 85.4152 69.2105 79.7546C65.2856 69.0501 53.7072 70.8626 48.932 79.9354C46.1845 85.2079 52.2681 87.993 58.6133 88.0408L58.5479 88.0461ZM132.008 85.0431C140.12 85.1175 147.839 78.7182 140.447 66.1481C162.819 66.5255 154.38 41.2684 137.569 48.3374C146.334 26.3332 110.945 22.8784 115.655 45.7224C94.5259 34.9435 84.9754 52.1802 106.039 60.2484C78.4339 65.1223 101.198 91.6284 118.991 72.962C119.056 81.0037 125.663 84.9793 132.008 85.0378V85.0431ZM125.271 64.2028C121.15 64.2028 117.813 61.5028 117.813 58.1756C117.813 54.843 121.15 52.1483 125.271 52.1483C129.392 52.1483 132.663 54.843 132.663 58.1756C132.663 61.5028 129.392 64.2028 125.271 64.2028ZM34.9332 63.5066C46.3153 63.565 53.4456 51.553 30.943 44.4575C42.9138 31.2762 9.55236 19.2642 14.9818 41.5873C-12.9503 42.2783 3.73046 71.7449 20.2149 55.7041C24.5977 61.3115 30.1579 63.4853 34.9332 63.5066ZM9.29071 17.5102C23.0278 17.1913 23.8781 7.62423 14.3276 1.51194C3.20714 -5.50391 -5.23132 17.8291 9.29071 17.5102Z" fill="#1E5C15" fill-opacity="0.2"/>
</svg>
