<svg width="170" height="38" viewBox="0 0 170 38" fill="none" xmlns="http://www.w3.org/2000/svg">
<path d="M56.73 0.0037132C51.77 0.0037132 47.97 1.92371 44.96 5.57371L48.8 10.1037L49.14 9.70371C51.4 7.05371 53.45 5.97371 56.19 5.97371C59.55 5.97371 61.36 7.67371 61.43 10.9037C61.43 10.9037 43.98 9.33371 43.98 20.3137C43.98 25.1337 47.92 28.3737 53.79 28.3737C57.08 28.3737 59.85 27.4037 61.87 25.5537V27.7837H68.18V11.4437C68.18 4.38371 63.79 0.0037132 56.73 0.0037132ZM61.42 16.0637C61.42 16.0637 61.78 22.8837 54.82 23.4137C51.6 23.6637 50.15 21.9837 50.15 20.1537C50.15 14.2837 61.43 16.0637 61.43 16.0637H61.42ZM29.95 0.0037132C26.48 0.0037132 23.25 1.41371 21.17 3.80371C19.45 1.35371 16.65 0.0037132 13.22 0.0037132C10.48 0.0037132 8.05 0.843713 6.14 2.44371V0.593713H0V27.7937H6.51V11.7037C6.51 8.34371 8.63 6.08371 11.78 6.08371C14.93 6.08371 16.78 8.29371 16.78 11.7037V27.7937H23.29V11.4437C23.29 8.29371 25.46 6.08371 28.56 6.08371C31.66 6.08371 33.51 8.23371 33.51 11.7037V27.7937H40.08V10.9037C40.08 4.28371 36.1 0.0037132 29.95 0.0037132ZM100.04 0.0037132C97.12 0.0037132 94.65 0.853713 92.7 2.53371V0.593713H86.56V27.7937H93.07V11.6537C93.07 8.34371 95.32 6.03371 98.55 6.03371C101.78 6.03371 103.76 8.29371 103.76 11.6537V27.7937H110.27V10.9037C110.28 4.28371 106.26 0.0037132 100.04 0.0037132ZM115.16 38.0037H118.47C123.11 38.0037 126.19 35.6937 128.46 30.5037L141.44 0.593713H134.46L127.08 18.8837L119.9 0.593713H112.88L123.48 26.1337L122.5 28.4037C121.39 30.9737 119.91 31.9737 117.25 31.9737H115.16V38.0037ZM165.92 4.22371C163.18 1.46371 159.46 -0.0862868 155.66 0.0037132C151.87 -0.0562868 148.17 1.49371 145.46 4.24371C142.79 6.95371 141.36 10.4737 141.44 14.1537C141.36 17.8137 142.86 21.4737 145.56 24.1837C148.22 26.8537 151.79 28.3737 155.38 28.3737H155.65C159.42 28.4537 163.15 26.9137 165.89 24.1537C168.58 21.4437 170.07 17.8037 169.99 14.1737C170.07 10.5337 168.58 6.91371 165.91 4.22371H165.92ZM163.33 14.2237C163.33 18.7237 159.97 22.2537 155.67 22.2537C151.37 22.2537 148.06 18.8037 148.06 14.2237C148.06 9.64371 151.35 6.08371 155.72 6.08371C160.09 6.08371 163.33 9.65371 163.33 14.2237ZM80.7 5.86371C80.7 7.72371 79.2 9.23371 77.35 9.23371C75.5 9.23371 74 7.72371 74 5.86371C74 4.00371 75.5 2.49371 77.35 2.49371C79.2 2.49371 80.7 4.00371 80.7 5.86371Z" fill="#B60217"/>
<path d="M77.3578 27.6931C79.208 27.6931 80.7078 26.1843 80.7078 24.3231C80.7078 22.4619 79.208 20.9531 77.3578 20.9531C75.5077 20.9531 74.0078 22.4619 74.0078 24.3231C74.0078 26.1843 75.5077 27.6931 77.3578 27.6931Z" fill="#B60217"/>
</svg>
