<svg width="32" height="31" viewBox="0 0 32 31" fill="none" xmlns="http://www.w3.org/2000/svg">
<path d="M15.9985 0.939453C24.8366 0.939453 32 6.52269 32 13.4118C32 20.2995 24.8366 25.8827 16 25.8827C15.1202 25.8811 14.2413 25.8252 13.3684 25.7151L6.65143 30.1082C5.888 30.512 5.61829 30.4678 5.93219 29.4789L7.29143 23.8743C2.90286 21.6495 0 17.7943 0 13.4118C0 6.52422 7.1619 0.939453 16 0.939453M25.0027 13.2214L27.2427 11.0515C27.3719 10.9172 27.444 10.7381 27.4438 10.5517C27.4436 10.3654 27.371 10.1864 27.2415 10.0525C27.1119 9.91854 26.9354 9.84013 26.7492 9.83376C26.5629 9.82739 26.3815 9.89355 26.243 10.0183L23.3051 12.8617V10.512C23.3051 10.3213 23.2294 10.1383 23.0945 10.0034C22.9596 9.86856 22.7767 9.79279 22.5859 9.79279C22.3952 9.79279 22.2122 9.86856 22.0773 10.0034C21.9424 10.1383 21.8667 10.3213 21.8667 10.512V14.4084C21.8413 14.5197 21.8413 14.6354 21.8667 14.7467V16.9395C21.8667 17.1302 21.9424 17.3131 22.0773 17.448C22.2122 17.5829 22.3952 17.6587 22.5859 17.6587C22.7767 17.6587 22.9596 17.5829 23.0945 17.448C23.2294 17.3131 23.3051 17.1302 23.3051 16.9395V14.8625L23.9558 14.2332L26.1318 17.3311C26.1861 17.4084 26.2552 17.4743 26.335 17.525C26.4148 17.5756 26.5037 17.6101 26.5969 17.6264C26.69 17.6426 26.7854 17.6404 26.8776 17.6198C26.9698 17.5992 27.0571 17.5606 27.1345 17.5063C27.2118 17.452 27.2777 17.3829 27.3284 17.3032C27.379 17.2234 27.4135 17.1344 27.4298 17.0413C27.446 16.9482 27.4438 16.8528 27.4232 16.7605C27.4026 16.6683 27.364 16.581 27.3097 16.5036L25.0027 13.2214ZM20.4952 16.1532H18.2705V10.5349C18.262 10.3501 18.1825 10.1756 18.0487 10.0478C17.9149 9.92005 17.737 9.84874 17.552 9.84874C17.367 9.84874 17.1891 9.92005 17.0553 10.0478C16.9215 10.1756 16.842 10.3501 16.8335 10.5349V16.8724C16.8335 17.2686 17.1535 17.5916 17.5512 17.5916H20.4952C20.686 17.5916 20.8689 17.5159 21.0038 17.381C21.1387 17.2461 21.2145 17.0632 21.2145 16.8724C21.2145 16.6817 21.1387 16.4987 21.0038 16.3638C20.8689 16.2289 20.686 16.1532 20.4952 16.1532ZM11.5703 14.4907L12.6309 11.888L13.603 14.4892L11.5703 14.4907ZM15.4149 15.2328L15.4179 15.2084C15.4174 15.0272 15.3482 14.853 15.2244 14.7208L13.6305 10.4541C13.5637 10.2508 13.4364 10.0727 13.2657 9.94364C13.0949 9.81457 12.8889 9.74068 12.675 9.73184C12.4598 9.73174 12.2496 9.79674 12.072 9.9183C11.8944 10.0399 11.7578 10.2123 11.68 10.413L9.14743 16.6225C9.07529 16.7991 9.07626 16.9971 9.15014 17.173C9.22401 17.3489 9.36472 17.4883 9.54133 17.5604C9.71794 17.6325 9.91597 17.6316 10.0919 17.5577C10.2678 17.4838 10.4071 17.3431 10.4792 17.1665L10.9851 15.9276H14.1394L14.5935 17.1467C14.6245 17.2378 14.6734 17.3218 14.7375 17.3937C14.8015 17.4655 14.8793 17.5238 14.9662 17.565C15.0532 17.6063 15.1476 17.6297 15.2437 17.6338C15.3399 17.6379 15.4359 17.6227 15.526 17.589C15.6162 17.5554 15.6987 17.5039 15.7686 17.4378C15.8386 17.3717 15.8945 17.2922 15.9332 17.2041C15.9718 17.1159 15.9924 17.0209 15.9937 16.9247C15.9949 16.8285 15.9769 16.733 15.9406 16.6438L15.4149 15.2328ZM10.3512 10.5425C10.3516 10.4481 10.3334 10.3545 10.2975 10.2671C10.2615 10.1798 10.2087 10.1004 10.142 10.0336C10.0753 9.96672 9.99604 9.91372 9.90877 9.87763C9.8215 9.84154 9.72796 9.82306 9.63352 9.82326H4.68876C4.49801 9.82326 4.31507 9.89904 4.18018 10.0339C4.0453 10.1688 3.96952 10.3517 3.96952 10.5425C3.96952 10.7333 4.0453 10.9162 4.18018 11.0511C4.31507 11.186 4.49801 11.2617 4.68876 11.2617H6.45638V16.9547C6.45638 17.1454 6.53216 17.3284 6.66704 17.4633C6.80192 17.5982 6.98487 17.6739 7.17562 17.6739C7.36637 17.6739 7.54931 17.5982 7.6842 17.4633C7.81908 17.3284 7.89486 17.1454 7.89486 16.9547V11.2617H9.632C9.72657 11.2621 9.82027 11.2438 9.90772 11.2078C9.99516 11.1718 10.0746 11.1188 10.1415 11.052C10.2083 10.9851 10.2613 10.9057 10.2973 10.8182C10.3333 10.7308 10.3516 10.6371 10.3512 10.5425Z" fill="white"/>
</svg>
