<svg width="33" height="33" viewBox="0 0 33 33" fill="none" xmlns="http://www.w3.org/2000/svg">
<path d="M28.4679 0.642578C29.4109 0.642578 30.3152 1.01718 30.982 1.68398C31.6488 2.35077 32.0234 3.25514 32.0234 4.19813V29.087C32.0234 30.03 31.6488 30.9344 30.982 31.6012C30.3152 32.268 29.4109 32.6426 28.4679 32.6426H3.57899C2.636 32.6426 1.73163 32.268 1.06484 31.6012C0.398039 30.9344 0.0234375 30.03 0.0234375 29.087V4.19813C0.0234375 3.25514 0.398039 2.35077 1.06484 1.68398C1.73163 1.01718 2.636 0.642578 3.57899 0.642578H28.4679ZM27.579 28.1981V18.7759C27.579 17.2388 26.9684 15.7647 25.8815 14.6778C24.7946 13.591 23.3205 12.9804 21.7834 12.9804C20.2723 12.9804 18.5123 13.9048 17.659 15.2915V13.3181H12.699V28.1981H17.659V19.4337C17.659 18.0648 18.7612 16.9448 20.1301 16.9448C20.7902 16.9448 21.4233 17.207 21.89 17.6738C22.3568 18.1405 22.619 18.7736 22.619 19.4337V28.1981H27.579ZM6.92122 10.527C7.71333 10.527 8.473 10.2124 9.03311 9.65225C9.59322 9.09214 9.90788 8.33247 9.90788 7.54036C9.90788 5.88702 8.57455 4.53591 6.92122 4.53591C6.12439 4.53591 5.36019 4.85245 4.79675 5.41589C4.23331 5.97934 3.91677 6.74353 3.91677 7.54036C3.91677 9.19369 5.26788 10.527 6.92122 10.527ZM9.39233 28.1981V13.3181H4.46788V28.1981H9.39233Z" fill="white"/>
</svg>
