<svg width="34" height="34" viewBox="0 0 34 34" fill="none" xmlns="http://www.w3.org/2000/svg">
<path fill-rule="evenodd" clip-rule="evenodd" d="M31.277 0.216797H2.74687C1.76871 0.216797 0.976562 1.02826 0.976562 2.03028V31.2563C0.976562 32.2583 1.76871 33.0697 2.74687 33.0697H18.1055V20.3474H13.9267V15.3899H18.1055V11.7318C18.1055 7.48715 20.6359 5.17759 24.3321 5.17759C26.1024 5.17759 27.6225 5.31229 28.0667 5.37307V9.80821H25.5043C23.4934 9.80821 23.1054 10.7872 23.1054 12.2229V15.3883H27.8983L27.273 20.3458H23.1038V33.0697H31.277C32.2551 33.0697 33.0473 32.2583 33.0473 31.2563V2.03028C33.0473 1.02826 32.2551 0.216797 31.277 0.216797Z" fill="white"/>
</svg>
