<svg width="263" height="42" viewBox="0 0 263 42" fill="none" xmlns="http://www.w3.org/2000/svg">
<g clip-path="url(#clip0_292_4045)">
<path d="M31.5368 26.8094C29.4912 30.7619 25.434 33.4428 20.695 33.4428C13.9444 33.4428 8.48937 27.9436 8.48937 21.1384C8.48937 14.3331 13.9444 8.83394 20.695 8.83394C25.059 8.83394 28.8775 11.1367 31.0254 14.6081L38.9011 10.5868C35.3212 4.26275 28.5707 0.03525 20.8313 0.03525C9.34172 0.000880145 0 9.41823 0 21.0009C0 32.5835 9.34172 42.0009 20.8313 42.0009C28.7411 42.0009 35.6281 37.5672 39.1397 31.0025L31.5368 26.8094Z" fill="black"/>
<path d="M74.4942 15.7751H55.9812V0.652344H47.3555V41.4838H56.1176V24.1613H74.4942V41.4838H83.0858V0.996043H74.4942V15.7751Z" fill="black"/>
<path d="M107.566 0.652344L90.1445 41.4494H98.3612L102.35 32.4445H122.841L127.068 41.4494H135.183L117.59 0.652344H107.566ZM105.828 24.2301L112.681 8.24809L119.704 24.2301H105.794H105.828Z" fill="black"/>
<path d="M171.561 26.0517L153.764 0.996043L143.672 0.652344V41.4838H150.559V11.7538L171.492 41.4838H178.959V0.996043H171.561V26.0517Z" fill="black"/>
<path d="M200.846 25.0206H218.916V17.253H200.846V8.38562H221.234V0.996094H192.459V41.4838H223.416V33.7506H200.846V25.0206Z" fill="black"/>
<path d="M242.032 33.9568V0.996094H233.543V41.4838H263V33.9568H242.032Z" fill="black"/>
</g>
<defs>
<clipPath id="clip0_292_4045">
<rect width="263" height="42" fill="white"/>
</clipPath>
</defs>
</svg>
